<svg width="93" height="14" viewBox="0 0 93 14" fill="none" xmlns="http://www.w3.org/2000/svg">
<path d="M6.98922 13.716C5.70476 13.716 4.54035 13.4392 3.49598 12.8857C2.46361 12.32 1.64732 11.5438 1.04711 10.557C0.458899 9.55816 0.164795 8.43295 0.164795 7.18138C0.164795 5.92981 0.458899 4.81061 1.04711 3.8238C1.64732 2.82494 2.46361 2.04873 3.49598 1.49515C4.54035 0.929535 5.71077 0.646729 7.00723 0.646729C8.09961 0.646729 9.08396 0.839278 9.96028 1.22438C10.8486 1.60948 11.5929 2.16306 12.1931 2.88512L10.3204 4.61806C9.4681 3.63125 8.41173 3.13784 7.15128 3.13784C6.371 3.13784 5.67475 3.31234 5.06254 3.66133C4.45032 3.99829 3.97015 4.47365 3.62202 5.0874C3.2859 5.70115 3.11784 6.39915 3.11784 7.18138C3.11784 7.96361 3.2859 8.6616 3.62202 9.27536C3.97015 9.88911 4.45032 10.3705 5.06254 10.7195C5.67475 11.0564 6.371 11.2249 7.15128 11.2249C8.41173 11.2249 9.4681 10.7255 10.3204 9.72664L12.1931 11.4596C11.5929 12.1937 10.8486 12.7533 9.96028 13.1384C9.07196 13.5235 8.08161 13.716 6.98922 13.716Z" fill="white"/>
<path d="M19.6574 13.716C17.8568 13.716 16.4523 13.2166 15.4439 12.2178C14.4476 11.2189 13.9494 9.79283 13.9494 7.93954V0.863346H16.8664V7.83123C16.8664 10.0937 17.8028 11.2249 19.6754 11.2249C20.5878 11.2249 21.284 10.9541 21.7642 10.4126C22.2443 9.85902 22.4844 8.99856 22.4844 7.83123V0.863346H25.3655V7.93954C25.3655 9.79283 24.8613 11.2189 23.8529 12.2178C22.8566 13.2166 21.4581 13.716 19.6574 13.716Z" fill="white"/>
<path d="M37.5033 6.92866C38.2236 7.15731 38.7878 7.54241 39.1959 8.08395C39.6041 8.61347 39.8081 9.26934 39.8081 10.0516C39.8081 11.1587 39.376 12.0132 38.5117 12.6149C37.6594 13.2046 36.4109 13.4994 34.7663 13.4994H28.248V0.863346H34.4062C35.9428 0.863346 37.1192 1.15819 37.9355 1.74787C38.7638 2.33755 39.1779 3.13784 39.1779 4.14872C39.1779 4.76247 39.0279 5.31004 38.7277 5.79141C38.4396 6.27279 38.0315 6.65187 37.5033 6.92866ZM31.1471 3.06563V6.04413H34.0461C34.7663 6.04413 35.3125 5.91777 35.6847 5.66505C36.0568 5.41233 36.2429 5.03926 36.2429 4.54586C36.2429 4.05245 36.0568 3.6854 35.6847 3.44471C35.3125 3.19199 34.7663 3.06563 34.0461 3.06563H31.1471ZM34.5503 11.2971C35.3185 11.2971 35.8947 11.1708 36.2789 10.918C36.675 10.6653 36.8731 10.2742 36.8731 9.74469C36.8731 8.69771 36.0988 8.17421 34.5503 8.17421H31.1471V11.2971H34.5503Z" fill="white"/>
<path d="M50.3175 10.7917H44.4655L43.3491 13.4994H40.36L45.978 0.863346H48.859L54.495 13.4994H51.4339L50.3175 10.7917ZM49.3992 8.57135L47.4005 3.73354L45.4018 8.57135H49.3992Z" fill="white"/>
<path d="M57.7806 3.24615H53.7472V0.863346H64.7311V3.24615H60.6977V13.4994H57.7806V3.24615Z" fill="white"/>
<path d="M72.2289 13.716C70.9205 13.716 69.738 13.4332 68.6817 12.8676C67.6373 12.302 66.815 11.5258 66.2148 10.539C65.6266 9.54011 65.3325 8.42092 65.3325 7.18138C65.3325 5.94184 65.6266 4.82866 66.2148 3.84185C66.815 2.843 67.6373 2.06076 68.6817 1.49515C69.738 0.929535 70.9205 0.646729 72.2289 0.646729C73.5374 0.646729 74.7138 0.929535 75.7582 1.49515C76.8026 2.06076 77.6248 2.843 78.2251 3.84185C78.8253 4.82866 79.1254 5.94184 79.1254 7.18138C79.1254 8.42092 78.8253 9.54011 78.2251 10.539C77.6248 11.5258 76.8026 12.302 75.7582 12.8676C74.7138 13.4332 73.5374 13.716 72.2289 13.716ZM72.2289 11.2249C72.9732 11.2249 73.6454 11.0564 74.2456 10.7195C74.8458 10.3705 75.314 9.88911 75.6501 9.27536C75.9983 8.6616 76.1723 7.96361 76.1723 7.18138C76.1723 6.39915 75.9983 5.70115 75.6501 5.0874C75.314 4.47365 74.8458 3.99829 74.2456 3.66133C73.6454 3.31234 72.9732 3.13784 72.2289 3.13784C71.4847 3.13784 70.8124 3.31234 70.2122 3.66133C69.612 3.99829 69.1378 4.47365 68.7897 5.0874C68.4536 5.70115 68.2855 6.39915 68.2855 7.18138C68.2855 7.96361 68.4536 8.6616 68.7897 9.27536C69.1378 9.88911 69.612 10.3705 70.2122 10.7195C70.8124 11.0564 71.4847 11.2249 72.2289 11.2249Z" fill="white"/>
<path d="M89.3485 13.4994L86.9176 9.97936H86.7736H84.2347V13.4994H81.3177V0.863346H86.7736C87.89 0.863346 88.8563 1.04988 89.6726 1.42294C90.5009 1.79601 91.1371 2.32552 91.5813 3.01148C92.0255 3.69743 92.2475 4.50975 92.2475 5.44843C92.2475 6.38711 92.0195 7.19943 91.5633 7.88539C91.1191 8.55931 90.4829 9.07679 89.6546 9.43782L92.4816 13.4994H89.3485ZM89.2945 5.44843C89.2945 4.73841 89.0664 4.19686 88.6102 3.8238C88.1541 3.4387 87.4878 3.24615 86.6115 3.24615H84.2347V7.65072H86.6115C87.4878 7.65072 88.1541 7.45817 88.6102 7.07307C89.0664 6.68797 89.2945 6.14642 89.2945 5.44843Z" fill="white"/>
</svg>
